<svg viewBox="0 -960 960 960" fill="none" xmlns="http://www.w3.org/2000/svg">
<path d="M 688.82812 -959.76562 C 675.02668 -960.74293 659.55899 -949.81446 660.70312 -935.70312 L 660.70312 -809.0625 L 255.85938 -809.21875 C 95.676699 -809.27705 71.721574 -829.53024 69.6875 -745.625 L 70.234375 -744.60938 C 69.217348 -716.64095 71.25 -677.49792 71.25 -622.57812 L 71.25 -353.90625 L 216.17188 -471.875 L 219.21875 -473.4375 L 219.21875 -621.09375 C 219.21875 -642.45147 233.48466 -657.65625 255.85938 -657.65625 L 660.70312 -657.5 L 660.70312 -530.39062 C 661.72018 -512.08402 688.1848 -501.93483 701.40625 -515.15625 L 950.54688 -714.45312 C 963.25978 -723.60644 963.25978 -744.98733 950.54688 -754.14062 L 701.40625 -954.53125 C 697.84663 -957.83661 693.42862 -959.43988 688.82812 -959.76562 z M 888.82812 -607.1875 L 787.65625 -524.84375 C 830.59002 -514.48219 866.75635 -486.9728 888.82812 -450.07812 L 888.82812 -607.1875 z M 749.45312 -481.25 C 674.72795 -481.25 614.0625 -420.66271 614.0625 -345.9375 L 614.0625 -300.78125 L 599.0625 -300.78125 C 565.88262 -300.78125 538.90625 -273.80488 538.90625 -240.625 L 538.90625 -60.15625 C 538.90625 -26.976385 565.88262 -1.1368684e-13 599.0625 0 L 899.84375 0 C 933.02363 0 960 -26.976385 960 -60.15625 L 960 -240.625 C 960 -273.80488 933.02363 -300.78125 899.84375 -300.78125 L 884.84375 -300.78125 L 884.84375 -345.9375 C 884.84375 -420.66271 824.17832 -481.25 749.45312 -481.25 z M 272.10938 -451.95312 C 267.15233 -451.58205 262.39037 -449.65603 258.67188 -445.9375 L 9.53125 -246.64062 C -3.1816374 -237.48735 -3.1816374 -216.10644 9.53125 -206.95312 L 258.67188 -6.5625 C 272.91027 6.6589077 300.97867 -6.5755594 299.45312 -25.390625 L 299.375 -152.03125 L 496.79688 -151.95312 L 496.79688 -240.625 C 496.79687 -267.63323 511.74002 -291.13838 533.75 -303.51562 L 299.375 -303.59375 L 299.375 -430.70312 C 298.73934 -442.14474 288.17352 -450.43619 277.10938 -451.79688 C 275.44974 -452.00094 273.76169 -452.07683 272.10938 -451.95312 z M 749.45312 -421.09375 C 790.99845 -421.09375 824.6875 -387.48283 824.6875 -345.9375 L 824.6875 -300.78125 L 674.21875 -300.78125 L 674.21875 -345.9375 C 674.21875 -387.48283 707.90781 -421.09375 749.45312 -421.09375 z "/>
</svg>
