<svg width="20" height="17" viewBox="0 0 20 17" fill="none" xmlns="http://www.w3.org/2000/svg">
<path d="M 4.9707031 3.1503906 L 4.9707031 3.1601562 C 4.8707031 3.1901563 4.8 3.2598438 4.75 3.3398438 L 0.80078125 8.2402344 C 0.60078125 8.5402344 0.8292187 9.0190625 1.1992188 9.0390625 L 3.5996094 9.0390625 L 3.5996094 11.720703 C 3.5996094 15.980703 3.0497656 15.339844 7.2597656 15.339844 L 11.869141 15.339844 L 11.869141 14.119141 L 11.869141 13.523438 L 11.869141 12.441406 C 11.869141 12.441406 11.869141 12.439453 11.869141 12.439453 L 7.2695312 12.439453 C 6.8295312 12.439453 6.5507814 12.140703 6.5507812 11.720703 L 6.5507812 9.0195312 L 9.0507812 9.0195312 C 9.4207813 9.0495313 9.6792188 8.54 9.4492188 8.25 L 5.5 3.3496094 C 5.38 3.1796094 5.1607031 3.1003906 4.9707031 3.1503906 z M 17.150391 3.5800781 L 17.130859 3.5898438 C 16.580859 3.5698436 15.810469 3.609375 14.730469 3.609375 L 7.0996094 3.609375 L 9.4199219 6.4609375 L 9.4492188 6.5195312 L 14.699219 6.5195312 C 15.106887 6.5195312 15.397113 6.7872181 15.414062 7.2050781 C 15.738375 7.0991315 16.077769 7.0273437 16.435547 7.0273438 L 16.578125 7.0273438 C 17.24903 7.0273438 17.874081 7.2325787 18.400391 7.578125 L 18.400391 7.2402344 C 18.400391 4.0902344 18.800391 3.6200781 17.150391 3.5800781 z M 16.435547 8.0273438 C 15.143818 8.0273438 14.083984 9.0851838 14.083984 10.376953 L 14.083984 11.607422 L 13.570312 11.607422 C 13.375448 11.607422 13.210603 11.704118 13.119141 11.791016 C 13.027691 11.877916 12.983569 11.958238 12.951172 12.03125 C 12.886382 12.177277 12.867187 12.304789 12.867188 12.441406 L 12.867188 13.523438 L 12.867188 14.119141 L 12.867188 15.677734 L 12.867188 16.509766 L 13.570312 16.509766 L 19.472656 16.509766 L 20.173828 16.509766 L 20.173828 15.677734 L 20.173828 13.523438 L 20.173828 12.441406 C 20.173828 12.304794 20.156597 12.177281 20.091797 12.03125 C 20.059397 11.95824 20.015299 11.877916 19.923828 11.791016 C 19.832368 11.704116 19.667509 11.607422 19.472656 11.607422 L 18.927734 11.607422 L 18.927734 10.376953 C 18.927734 9.0851838 17.867902 8.0273438 16.576172 8.0273438 L 16.435547 8.0273438 z M 16.435547 9.2207031 L 16.576172 9.2207031 C 17.22782 9.2207031 17.734375 9.7251013 17.734375 10.376953 L 17.734375 11.607422 L 15.277344 11.607422 L 15.277344 10.376953 C 15.277344 9.7251013 15.7839 9.2207031 16.435547 9.2207031 z M 12.919922 9.9394531 C 12.559922 9.9594531 12.359141 10.480234 12.619141 10.740234 L 12.751953 10.904297 C 12.862211 10.870135 12.980058 10.842244 13.085938 10.802734 L 13.085938 10.378906 C 13.085938 10.228632 13.111295 10.084741 13.130859 9.9394531 L 12.919922 9.9394531 z M 19.882812 9.9394531 C 19.902378 10.084741 19.927734 10.228632 19.927734 10.378906 L 19.927734 10.791016 C 20.168811 10.875098 20.455966 10.916935 20.613281 11.066406 C 20.691227 11.140457 20.749315 11.223053 20.806641 11.302734 L 21.259766 10.740234 C 21.519766 10.460234 21.260625 9.9094531 20.890625 9.9394531 L 19.882812 9.9394531 z M 16.435547 10.220703 C 16.301234 10.220703 16.277344 10.244432 16.277344 10.378906 L 16.277344 10.607422 L 16.734375 10.607422 L 16.734375 10.378906 C 16.734375 10.244433 16.712442 10.220703 16.578125 10.220703 L 16.435547 10.220703 z"/>
</svg>
