<svg width="18" height="18" viewBox="0 0 18 18" xmlns="http://www.w3.org/2000/svg">
<path d="M 13.331891,1.7673111e-5 C 13.102952,-0.00201835 12.862535,0.17207432 12.849455,0.41403485 V 2.5056027 H 3.5815982 c -3.71537407,0 -3.15634477,-0.478241 -3.15634477,3.1930098 V 12.377568 L 2.9018904,10.371929 c 0.0174,-0.0262 0.035335,-0.02557 0.052736,-0.04297 V 5.7064241 c 0,-0.3836872 0.2606617,-0.6268845 0.6269719,-0.6268845 h 9.2854357 v 2.1794489 c -0.0262,0.3226541 0.418979,0.5481759 0.671894,0.3476183 L 17.812495,4.1636243 C 17.960769,4.058976 18.029939,3.8664658 17.986328,3.7007844 h -0.0078 C 17.952328,3.6135934 17.892058,3.5530042 17.822273,3.509399 L 13.548695,0.06446374 C 13.483285,0.0208611 13.408204,6.9634751e-4 13.331891,1.7673111e-5 Z M 17.585926,5.5580029 l -2.486404,2.0232159 -0.05078,0.027341 v 0.175762 c 1.17343,0.4765083 2.002013,1.6284633 2.002013,2.9723302 v 1.068243 h 0.355479 c 0.06127,0 0.120442,0.0061 0.179694,0.01367 z M 13.843625,8.50104 c -1.475232,0 -2.671955,1.1965564 -2.671955,2.671582 v 0.890528 h -0.296884 c -0.655037,0 -1.1875357,0.532424 -1.1875357,1.18737 v 3.56211 C 9.6872503,17.467575 10.219749,18 10.874786,18 h 5.937679 C 17.467502,18 18,17.467575 18,16.81263 v -3.56211 c 0,-0.654946 -0.532498,-1.18737 -1.187535,-1.18737 h -0.296884 v -0.890528 c 0,-1.4750256 -1.196724,-2.671582 -2.671956,-2.671582 z m 0,1.18737 c 0.820189,0 1.48442,0.664138 1.48442,1.484212 v 0.890528 h -2.968839 v -0.890528 c 0,-0.820074 0.664231,-1.484212 1.484419,-1.484212 z m -9.1194143,0.580014 c -0.02855,-0.0017 -0.057935,-7.9e-5 -0.08594,0.0039 -0.074681,0.01063 -0.144489,0.04292 -0.2011779,0.0996 l -4.27356588,3.417595 c -0.21803589,0.156959 -0.21803589,0.524602 0,0.681565 l 4.27356628,3.43517 c 0.2441967,0.226725 0.7234473,4.22e-4 0.6972865,-0.32223 v -2.171638 h 3.720815 v -2.161872 c 0,-0.152589 0.025739,-0.299543 0.070314,-0.437452 H 5.1343792 V 10.633619 C 5.1229602,10.427606 4.9240572,10.280475 4.7242107,10.268424 Z" />
</svg>
