<svg viewBox="0 -960 960 960" fill="none" xmlns="http://www.w3.org/2000/svg">
<path d="M 688.82812 -959.76562 C 675.02666 -960.74293 659.55898 -949.81447 660.70312 -935.70312 L 660.70312 -809.0625 L 255.85938 -809.21875 C 218.87631 -809.23221 189.87532 -810.23544 166.01562 -810.85938 L 58.125 -895.39062 C 42.521126 -907.69368 19.881188 -904.82262 7.578125 -889.21875 C -4.7249367 -873.61486 -1.8538748 -850.97493 13.75 -838.67188 L 76.484375 -789.45312 L 246.17188 -656.48438 L 696.64062 -303.4375 L 876.95312 -162.10938 L 901.95312 -142.5 C 917.55702 -130.19695 940.19698 -133.06799 952.5 -148.67188 C 964.80309 -164.27576 962.01015 -186.91568 946.40625 -199.21875 L 890 -243.4375 C 889.7806 -268.26625 888.82812 -299.21572 888.82812 -338.51562 L 888.82812 -607.1875 L 743.90625 -489.21875 L 740.85938 -487.65625 L 740.85938 -360.3125 L 361.48438 -657.57812 L 660.70312 -657.5 L 660.70312 -530.39062 C 661.72018 -512.084 688.18479 -501.93482 701.40625 -515.15625 L 950.54688 -714.45312 C 963.2598 -723.60644 963.2598 -744.98732 950.54688 -754.14062 L 701.40625 -954.53125 C 697.84663 -957.83661 693.42862 -959.43987 688.82812 -959.76562 z M 70.234375 -702.8125 C 70.610007 -680.63331 71.25 -654.52448 71.25 -622.57812 L 71.25 -353.90625 L 216.17188 -471.875 L 219.21875 -473.4375 L 219.21875 -586.09375 L 70.234375 -702.8125 z M 272.10938 -451.95312 C 267.15233 -451.58202 262.3904 -449.65603 258.67188 -445.9375 L 9.53125 -246.64062 C -3.1816755 -237.48732 -3.1816755 -216.10644 9.53125 -206.95312 L 258.67188 -6.5625 C 272.91033 6.6589473 300.97867 -6.5755028 299.45312 -25.390625 L 299.375 -152.03125 L 704.29688 -151.875 C 732.10042 -151.8649 754.49743 -151.28126 774.6875 -150.70312 L 579.76562 -303.51562 L 299.375 -303.59375 L 299.375 -430.70312 C 298.73934 -442.14477 288.17358 -450.43619 277.10938 -451.79688 C 275.44974 -452.00097 273.76172 -452.07683 272.10938 -451.95312 z "/>
</svg>
