<svg viewBox="0 -960 960 960" fill="none" xmlns="http://www.w3.org/2000/svg">
<path d="M 688.82812 -959.76562 C 675.02666 -960.74293 659.55898 -949.81447 660.70312 -935.70312 L 660.70312 -809.0625 L 255.85938 -809.21875 C 95.676544 -809.27705 71.721576 -829.53032 69.6875 -745.625 L 70.234375 -744.60938 C 69.217347 -716.64093 71.25 -677.49797 71.25 -622.57812 L 71.25 -353.90625 L 216.17188 -471.875 L 219.21875 -473.4375 L 219.21875 -621.09375 C 219.21875 -642.45149 233.48464 -657.65625 255.85938 -657.65625 L 660.70312 -657.5 L 660.70312 -530.39062 C 661.72018 -512.084 688.18479 -501.93482 701.40625 -515.15625 L 950.54688 -714.45312 C 963.2598 -723.60644 963.2598 -744.98732 950.54688 -754.14062 L 701.40625 -954.53125 C 697.84663 -957.83661 693.42862 -959.43987 688.82812 -959.76562 z M 888.82812 -607.1875 L 775.70312 -515.07812 C 825.38285 -506.61741 867.07086 -474.60654 888.82812 -430.9375 L 888.82812 -607.1875 z M 749.45312 -481.25 C 674.72787 -481.25 614.0625 -420.66278 614.0625 -345.9375 L 614.0625 -300.78125 L 599.0625 -300.78125 C 565.88259 -300.78125 538.90625 -273.80491 538.90625 -240.625 L 538.90625 -60.15625 C 538.90625 -26.976352 565.88259 0 599.0625 0 L 899.84375 0 C 933.02366 -2.2737368e-13 960 -26.976352 960 -60.15625 L 960 -240.625 C 960 -273.80491 933.02366 -300.78125 899.84375 -300.78125 L 884.84375 -300.78125 L 884.84375 -345.9375 C 884.84375 -420.66278 824.17839 -481.25 749.45312 -481.25 z M 272.10938 -451.95312 C 267.15233 -451.58202 262.3904 -449.65603 258.67188 -445.9375 L 9.53125 -246.64062 C -3.1816755 -237.48732 -3.1816755 -216.10644 9.53125 -206.95312 L 258.67188 -6.5625 C 272.91033 6.6589473 300.97867 -6.5755028 299.45312 -25.390625 L 299.375 -152.03125 L 507.34375 -151.95312 L 507.34375 -240.625 C 507.34375 -268.5419 523.95586 -292.59206 547.8125 -303.51562 L 299.375 -303.59375 L 299.375 -430.70312 C 298.73934 -442.14477 288.17358 -450.43619 277.10938 -451.79688 C 275.44974 -452.00097 273.76172 -452.07683 272.10938 -451.95312 z M 749.45312 -421.09375 C 790.99849 -421.09375 824.6875 -387.48287 824.6875 -345.9375 L 824.6875 -300.78125 L 674.21875 -300.78125 L 674.21875 -345.9375 C 674.21875 -387.48287 707.90776 -421.09375 749.45312 -421.09375 z "/>
</svg>
