<svg width="18" height="18" viewBox="0 0 18 18" xmlns="http://www.w3.org/2000/svg">
<path d="m 17.978462,3.7012503 c -0.0262,-0.0872 -0.0872,-0.14826 -0.156979,-0.19187 l -4.27344,-3.44491005 c -0.261631,-0.17443 -0.68026,0.0262 -0.6977,0.34885 V 2.5064303 H 3.5822925 c -3.71527,0 -3.15711,-0.47967 -3.15711,3.19199 V 12.37893 l 2.47685,-2.0059 c 0.0174,-0.0262 0.0349,-0.0262 0.0523,-0.0436 V 5.7071403 c 0,-0.38373 0.26163,-0.62793 0.62793,-0.62793 h 9.2854895 v 2.18032 c -0.0262,0.32269 0.418631,0.54944 0.67154,0.34886 l 4.273431,-3.44491 c 0.14827,-0.10466 0.218039,-0.29653 0.174429,-0.46223 z m -0.4031,10.6050897 c 0.0174,-0.47968 0.0106,-1.15121 0.0106,-2.09311 V 5.5588803 l -2.48557,2.02334 -0.0523,0.0262 V 12.18709 c 0,0.3663 -0.244199,0.62794 -0.62794,0.62794 H 5.1346625 V 10.6347 c -0.0174,-0.31396 -0.47095,-0.48839 -0.6977,-0.26164 l -4.27344,3.41875 c -0.21803,0.15698 -0.21803,0.52328 0,0.68026 l 4.27344,3.43619 c 0.24419,0.22675 0.72386,0 0.6977,-0.32269 v -2.1716 h 9.2574095 c 2.74721,0 3.15711,0.34885 3.19199,-1.09016 z" />
</svg>
