<svg width="20" height="17" viewBox="0 0 20 17" fill="none" xmlns="http://www.w3.org/2000/svg">
<path d="M4.97 3.16c-.1.03-.17.1-.22.18L.8 8.24c-.2.3.03.78.4.8H3.6v2.68c0 4.26-.55 3.62 3.66 3.62h7.66l-2.3-2.84c-.03-.02-.03-.04-.05-.06H7.27c-.44 0-.72-.3-.72-.72v-2.7h2.5c.37.03.63-.48.4-.77L5.5 3.35c-.12-.17-.34-.25-.53-.2zm12.16.43c-.55-.02-1.32.02-2.4.02H7.1l2.32 2.85.03.06h5.25c.42 0 .72.28.72.72v2.7h-2.5c-.36.02-.56.54-.3.8l3.92 4.9c.18.25.6.25.78 0l3.94-4.9c.26-.28 0-.83-.37-.8H18.4v-2.7c0-3.15.4-3.62-1.25-3.66z"/>
</svg>
