<svg width="18" height="18" viewBox="0 0 18 18" xmlns="http://www.w3.org/2000/svg">
<path d="M 13.332463,1.7675124e-5 C 13.103498,-0.00201857 12.863088,0.17209263 12.850006,0.41408018 V 2.5058771 H 3.5817603 c -0.3298985,0 -0.4980834,-0.00371 -0.7637268,-0.00781 L 1.0913468,1.1445489 C 0.7988259,0.91392912 0.37464926,0.96729356 0.14401289,1.2597833 -0.08662347,1.552283 -0.0332552,1.9764292 0.25925555,2.2070489 L 16.908892,15.255877 c 0.292521,0.23062 0.716698,0.177256 0.947334,-0.115234 0.230637,-0.2925 0.177268,-0.716646 -0.115243,-0.947266 l -0.160168,-0.126953 c 0.0096,-0.460624 0.0059,-1.041211 0.0059,-1.853515 V 5.5586115 l -2.486548,2.0234374 -0.05078,0.027344 V 12.084002 L 6.1131925,5.0800958 h 6.7543935 v 2.1796875 c -0.0262,0.3226901 0.418979,0.5482363 0.671923,0.3476563 l 4.273745,-3.4433594 c 0.148292,-0.1046601 0.217457,-0.2971907 0.173841,-0.4628906 h -0.0078 c -0.0262,-0.0872 -0.08648,-0.1477962 -0.156261,-0.1914063 L 13.549275,0.0644708 C 13.483858,0.0208633 13.408785,6.9642522e-4 13.332463,1.7675124e-5 Z M 0.39989067,3.9160333 c 0.004264,0.4487969 0.0253924,1.0074727 0.0253924,1.7832032 V 12.378924 L 2.902024,10.373065 c 0.017402,-0.0262 0.035335,-0.02557 0.052738,-0.04297 V 5.9199396 Z M 4.7224674,10.269549 c -0.028553,-0.0017 -0.055982,-7.9e-5 -0.08399,0.0039 -0.074689,0.01063 -0.1444909,0.04292 -0.2011864,0.09961 l -4.27374516,3.417969 c -0.21806112,0.156979 -0.21806112,0.524659 0,0.68164 L 4.437291,17.908215 c 0.244225,0.226751 0.7234796,4.23e-4 0.6973158,-0.322265 v -2.17187 h 9.2584792 c 0.254861,0 0.469396,0.0035 0.685596,0.0078 L 11.750318,12.814471 H 5.1346065 V 10.634784 C 5.1231857,10.428747 4.9223372,10.281601 4.7224674,10.269549 Z" />
</svg>
