<svg viewBox="0 -960 960 960" fill="none" xmlns="http://www.w3.org/2000/svg">
<path d="m 889.88012,-216.46509 c 1.01703,-27.96849 -1.01704,-67.12437 -1.01704,-122.04432 v -268.67857 l -144.92765,117.9762 -3.0511,1.52555 v 147.65125 c 0,21.35777 -14.23851,36.62144 -36.61329,36.6133 l -404.88105,-0.14729 v -127.1295 c -1.01705,-18.30666 -27.45998,-28.477 -40.68145,-15.25555 L 9.5347132,-246.61494 c -12.7129509,9.15332 -12.7129509,30.51109 0,39.66441 L 258.70854,-6.5944201 c 14.23849,13.2214737 42.25693,0 40.73138,-18.8151599 l -0.0499,-126.62101 404.88105,0.14729 c 160.18315,0.0583 184.08352,20.34073 186.1176,-63.56475 z M 70.225915,-744.63763 c -1.01703,27.96849 1.01704,67.12438 1.01704,122.04433 v 268.67857 l 144.927635,-117.9762 3.0511,-1.52555 v -147.65125 c 0,-21.35778 14.23852,-36.6133 36.6133,-36.6133 l 404.88104,0.14729 v 127.1295 c 1.01706,18.30666 27.45998,28.477 40.68146,15.25555 l 249.17383,-199.33908 c 12.71296,-9.15332 12.71296,-30.51109 0,-39.66441 L 701.39749,-954.50829 c -14.2385,-13.22147 -42.207,0 -40.68146,18.81516 v 126.621 l -404.88104,-0.14729 c -160.183146,-0.0583 -184.083515,-20.34072 -186.117595,63.56476 z"/>
</svg>
