<svg width="18" height="18" viewBox="0 0 18 18" xmlns="http://www.w3.org/2000/svg">
<path d="m 0.65820312,1.8007812 c -0.19446363,0.00524 -0.38394812,0.093287 -0.51367187,0.2578126 -0.23062,0.2924999 -0.17725562,0.7166556 0.11523437,0.9472656 L 16.908203,16.056641 c 0.29249,0.23062 0.716636,0.177255 0.947266,-0.115235 0.23062,-0.2925 0.177255,-0.716645 -0.115235,-0.947265 L 16.548828,14.058594 C 17.445047,13.183045 18,11.960094 18,10.607422 V 7.7128906 6.4277344 5.1425781 c 0,-1.41828 -1.153966,-2.5722656 -2.572266,-2.5722656 h -2.570312 c -1.4183,0 -2.572266,1.1539856 -2.572266,2.5722656 v 2.5703125 c 0,1.41829 1.153966,2.5722654 2.572266,2.5722654 h 2.570312 v 0.322266 c 0,0.75511 -0.37365,1.423803 -0.945312,1.832031 L 7.7148438,7.1347656 V 6.4277344 5.1425781 C 7.7148437,3.7242981 6.5608781,2.5703125 5.1425781,2.5703125 H 2.5722656 c -0.2040265,0 -0.4033227,0.023144 -0.59375,0.068359 L 1.0917969,1.9433594 C 0.96382811,1.8424631 0.80945262,1.7967049 0.65820312,1.8007812 Z M 0.08789062,4.4765625 C 0.0310838,4.6887291 0,4.9126984 0,5.1425781 v 2.5703125 c 0,1.41829 1.1539656,2.5722654 2.5722656,2.5722654 h 2.5703125 v 0.322266 c 0,1.24151 -1.00849,2.25 -2.25,2.25 H 2.5722656 c -0.71116,0 -1.2871093,0.574006 -1.2871094,1.285156 10e-8,0.71116 0.5759494,1.285156 1.2871094,1.285156 h 0.3203125 c 2.66384,0 4.8222657,-2.156502 4.8222657,-4.820312 V 10.457031 Z M 11.701172,13.580078 c -0.08259,0.169854 -0.128906,0.360605 -0.128906,0.5625 0,0.71116 0.573996,1.285156 1.285156,1.285156 h 0.320312 c 0.271345,0 0.537782,-0.02142 0.796875,-0.06445 z" />
</svg>
